<?xml version="1.0" standalone="no"?>
<!DOCTYPE svg PUBLIC "-//W3C//DTD SVG 20010904//EN"
 "http://www.w3.org/TR/2001/REC-SVG-20010904/DTD/svg10.dtd">
<svg version="1.0" xmlns="http://www.w3.org/2000/svg"
 width="128.000000pt" height="128.000000pt" viewBox="0 0 128.000000 128.000000"
 preserveAspectRatio="xMidYMid meet">

<g transform="translate(0.000000,128.000000) scale(0.100000,-0.100000)"
fill="#000000" stroke="none">
<path d="M502 1265 c-114 -25 -246 -100 -323 -182 -119 -125 -189 -316 -176
-483 21 -267 199 -493 452 -573 99 -31 271 -31 370 0 145 46 273 144 351 269
136 218 136 470 -1 689 -76 122 -205 222 -345 266 -85 27 -242 34 -328 14z
m269 -388 c27 -12 27 -12 12 -60 -11 -40 -16 -46 -31 -38 -53 27 -133 20 -145
-13 -11 -29 4 -45 71 -77 83 -38 119 -72 133 -121 29 -108 -54 -188 -194 -188
-52 0 -119 13 -135 25 -4 4 20 95 25 95 3 0 29 -7 59 -16 43 -12 61 -13 88 -4
70 23 51 73 -44 116 -84 37 -120 81 -120 143 0 58 29 105 80 132 41 22 159 25
201 6z"/>
</g>
</svg>
